<svg xmlns="http://www.w3.org/2000/svg" viewBox="0 0 500 61"><path d="M14 28.1c0-1.8 0-5.9-.6-7.4-.7-1.9-3-1.9-4.8-1.9v-1.5h27.7v8.4H35c-1.1-6.5-4-6.9-9.9-6.9h-4c-.8 0-1.2-.1-1.4.2-.1.2-.1.8-.1 2.1v13.2c7.6.3 8.8-2.8 9.1-6.9H30c-.1 2.5-.1 5.1-.2 7.6.1 2.3.2 4.6.2 6.9h-1.3c-.8-5.9-3.7-6.1-9.1-6.1V45c0 1.7 0 4.3 1 5.6 1.4 2 4.9 2.1 7.1 2 5.8-.1 9.6-.8 10.3-7.5h1.3l-.5 9H8.7v-1.3c1.8 0 4.1 0 4.8-1.9.6-1.5.6-5.6.6-7.4V28.1zM79.3 28c0-1.8 0-5.9-.5-7.4-.6-2-3-1.9-4.7-1.9v-1.4c2.3.1 4.7.2 7 .2 3-.1 6-.2 9-.2 11.8-.2 20.7 7.1 20.7 19.2 0 11.8-7.7 18-19.2 17.7-3.3-.1-6.6-.2-9.9-.2-2.6.1-5.1.2-7.6.2v-1.3c1.8 0 4.1 0 4.7-1.9.5-1.5.5-5.6.5-7.4V28zM85 44.4c0 1.9-.2 4.6.9 6.2 1.3 1.9 4.1 2.1 6.2 2.1 9.8 0 11.7-7 11.7-15.3 0-11-3.2-18.6-15.1-18.6-.7 0-2.8-.1-3.3.4-.4.4-.4 1.3-.4 1.7v23.5zM151.2 28.1c0-1.8 0-5.9-.6-7.4-.7-1.9-3-1.9-4.8-1.9v-1.5h27.7v8.4h-1.3c-1.1-6.5-4-6.9-9.9-6.9h-4c-.8 0-1.2-.1-1.4.2-.1.2-.1.8-.1 2.1v13.2c7.6.3 8.8-2.8 9.1-6.9h1.3c-.1 2.5-.1 5.1-.2 7.6.1 2.3.2 4.6.2 6.9H166c-.8-5.9-3.7-6.1-9.1-6.1V45c0 1.7 0 4.3 1 5.6 1.5 2 4.9 2.1 7.1 2 5.8-.1 9.6-.8 10.3-7.5h1.3l-.5 9h-30.3v-1.3c1.8 0 4.1 0 4.8-1.9.6-1.5.6-5.6.6-7.4V28.1zM212.6 26.9v-1.2c3.4-1.9 6.7-4.6 8.1-8.4h1v7.8h7.6v1.8h-7.6V46c0 3 .6 6.2 4.2 6.2 2.3 0 3.6-1.3 4.8-3l1.2.9c-1.2 3.2-4.6 4.3-7.8 4.3-4.8 0-8.1-1.9-8.1-6.9V26.9h-3.4zM276.7 42.1c-.8 2.1-2.7 6.2-2.7 8.4 0 2.4 2.8 2.2 4.5 2.4v1.3c-2.1-.1-4.1-.2-6.1-.2-2 .1-3.8.2-5.8.2v-1.3c3-.3 4.2-1.2 5.4-4 1.6-3.6 3.1-7.1 4.6-10.6l8.5-21.9h1.9l11.3 28.3c.7 1.4 1.9 4.9 2.9 6.1 1.2 1.6 2.9 1.8 4.8 2.1v1.3c-2.6-.1-5.3-.2-7.9-.2-2.7.1-5.4.2-8.1.2v-1.3c1.6-.1 4.3.1 4.3-2.1 0-1.4-.6-3.1-1.1-4.3l-2.2-5.7h-13.8l-.5 1.3zm13.6-3.1l-6.1-15.7L278 39h12.3zm.7-27.2l-7.5-3.2c-1.3-.6-3.5-1.2-3.5-3 0-1.1.8-2 1.9-2 .9 0 1.8.7 2.5 1.3l8.8 6.9H291zM368.1 49.7c1.8 2.1 2.6 2.8 5.5 3.3v1.3c-1.7-.1-3.3-.2-5-.2-1.4.1-2.8.2-4.2.2l-2.6-3.2-9.3-11.5c-1.8-2.1-1.6-2.5-4.6-2.5v6.6c0 1.8 0 5.9.5 7.4.7 2 3 1.9 4.7 1.9v1.3c-2.6-.1-5.2-.2-7.9-.2-2.8.1-5.6.2-8.4.2V53c1.8 0 4.1 0 4.7-1.9.5-1.5.5-5.6.5-7.4V27.9c0-1.8 0-5.9-.5-7.4-.6-2-3-1.9-4.7-1.9v-1.3c3.2.1 6.4.2 9.6.2 2.3-.1 4.7-.2 7.1-.2 6.4 0 12.8 1.4 12.8 9.2 0 6-4.6 9.1-10.1 9.6l11.9 13.6zm-20.2-14.1c7 0 12-.2 12-8.3 0-4.9-2.8-8.4-7.8-8.4-.7 0-3.1-.2-3.6.1-.7.3-.6 1.4-.6 2v14.6zM410.1 27.9c0-1.8 0-5.9-.6-7.4-.7-1.9-3-1.9-4.8-1.9v-1.3c2.7.1 5.3.2 8 .2 2.8-.1 5.6-.2 8.4-.2v1.3c-1.8 0-4.1 0-4.8 1.9-.6 1.5-.6 5.6-.6 7.4v15.7c0 1.8 0 5.9.6 7.4.7 1.9 3 1.9 4.8 1.9v1.3c-2.6-.1-5.4-.2-8-.2-2.8.1-5.6.2-8.4.2v-1.3c1.8 0 4.1 0 4.8-1.9.6-1.5.6-5.6.6-7.4V27.9zM462.4 42.1c-.8 2.1-2.7 6.2-2.7 8.4 0 2.4 2.8 2.2 4.5 2.4v1.3c-2.1-.1-4.1-.2-6.1-.2-2 .1-3.8.2-5.8.2v-1.3c3-.3 4.2-1.2 5.4-4 1.6-3.6 3.1-7.1 4.6-10.6l8.5-21.9h1.9L484 44.8c.7 1.4 1.9 4.9 2.9 6.1 1.2 1.6 2.9 1.8 4.8 2.1v1.3c-2.6-.1-5.3-.2-7.9-.2-2.7.1-5.4.2-8.1.2V53c1.6-.1 4.3.1 4.3-2.1 0-1.4-.6-3.1-1.1-4.3l-2.2-5.7h-13.8l-.5 1.2zM476 39l-6.1-15.7-6.3 15.7H476z"/></svg>