<?xml version="1.0" encoding="utf-8"?>
<!-- Generator: Adobe Illustrator 18.1.1, SVG Export Plug-In . SVG Version: 6.00 Build 0)  -->
<svg version="1.1" id="Layer_1" xmlns="http://www.w3.org/2000/svg" xmlns:xlink="http://www.w3.org/1999/xlink" x="0px" y="0px"
	 width="512px" height="512px" viewBox="156 -156 512 512" enable-background="new 156 -156 512 512" xml:space="preserve">
<path d="M648-46.5c-17.4,7.7-36,12.9-55.6,15.3c20-12,35.4-31,42.6-53.6c-18.7,11.1-39.4,19.2-61.5,23.5
	C555.8-80.2,530.6-92,502.8-92C449.3-92,406-48.6,406,4.9c0,7.6,0.8,15,2.5,22.1C328,23,256.6-15.6,208.9-74.3
	c-8.3,14.3-13.1,31-13.1,48.7C195.8,8,213,37.7,239,55.1c-16-0.4-31-4.8-44-12.1c0,0.4,0,0.8,0,1.2c0,47,33.4,86.1,77.7,95
	c-8.1,2.2-16.7,3.4-25.5,3.4c-6.2,0-12.3-0.6-18.2-1.8c12.3,38.5,48.1,66.5,90.5,67.3c-33.1,26-74.9,41.5-120.3,41.5
	c-7.8,0-15.5-0.5-23.1-1.4C218.8,276,269.7,292,324.3,292C502.6,292,600,144.3,600,16.2c0-4.2-0.1-8.4-0.3-12.5
	C618.6-10,635-27,648-46.5z"/>
</svg>
