<!-- Generated by IcoMoon.io -->
<svg version="1.1" xmlns="http://www.w3.org/2000/svg" width="32" height="32" viewBox="0 0 32 32">
<title>ios-location</title>
<path d="M16 2c-4.625 0-8.387 3.669-8.387 8.294 0 1.025 0.219 2.144 0.613 3.15h-0.006l0.037 0.075c0.031 0.069 0.063 0.137 0.094 0.206l7.65 16.275 7.65-16.269c0.031-0.069 0.069-0.137 0.1-0.213l0.025-0.069c0.406-1.006 0.613-2.069 0.613-3.144 0-4.638-3.762-8.306-8.387-8.306zM16 12.931c-1.619 0-2.931-1.313-2.931-2.931s1.313-2.931 2.931-2.931 2.931 1.313 2.931 2.931-1.313 2.931-2.931 2.931z"></path>
</svg>
