<!-- Generated by IcoMoon.io -->
<svg version="1.1" xmlns="http://www.w3.org/2000/svg" width="32" height="32" viewBox="0 0 32 32">
<title>ios-cart</title>
<path d="M10 25c-0.828 0-1.5 0.672-1.5 1.5s0.672 1.5 1.5 1.5 1.5-0.672 1.5-1.5-0.672-1.5-1.5-1.5z"></path>
<path d="M24.031 25c-0.828 0-1.5 0.672-1.5 1.5s0.672 1.5 1.5 1.5 1.5-0.672 1.5-1.5-0.672-1.5-1.5-1.5z"></path>
<path d="M28 8l-20.301-2.022c-0.102-0.436-0.273-0.916-0.74-1.292-0.582-0.468-1.522-0.686-2.959-0.686v1c1.163 0 1.948 0.157 2.332 0.465 0.279 0.224 0.353 0.526 0.448 0.999l-0.002 0 2.628 14.602c0.151 0.901 0.45 1.576 0.831 2.062 0.453 0.578 1.046 0.871 1.763 0.871h15v-1h-15c-0.295 0-1.196 0.008-1.609-2.11l-0.339-1.885 16.949-3.005 1-8z"></path>
</svg>
