<!-- Generated by IcoMoon.io -->
<svg version="1.1" xmlns="http://www.w3.org/2000/svg" width="32" height="32" viewBox="0 0 32 32">
<title>social-instagram</title>
<path d="M21 15.988c0 2.761-2.239 5-5 5s-5-2.239-5-5c0-2.761 2.239-5 5-5s5 2.239 5 5z"></path>
<path d="M11.113 11.056c1.325-1.325 3.081-2.056 4.95-2.056s3.625 0.738 4.95 2.063c0.837 0.838 1.438 1.85 1.762 2.975h5.256v-7.063c0-1.656-1.281-2.938-2.938-2.938h-18c-1.656 0-3.063 1.281-3.063 2.938v7.063h5.319c0.325-1.131 0.925-2.144 1.762-2.981zM26.031 9.231c0 0.444-0.356 0.8-0.8 0.8h-2.4c-0.444 0-0.8-0.356-0.8-0.8v-2.4c0-0.444 0.356-0.8 0.8-0.8h2.4c0.444 0 0.8 0.356 0.8 0.8v2.4z"></path>
<path d="M21.012 20.956c-1.325 1.319-3.081 2.044-4.95 2.044s-3.625-0.719-4.95-2.038c-1.319-1.319-2.050-3.113-2.050-4.925h-5.031v8.938c0 1.656 1.406 3.063 3.063 3.063h18c1.656 0 2.938-1.406 2.938-3.063v-8.938h-4.969c0 1.806-0.731 3.6-2.050 4.919z"></path>
</svg>
