<?xml version="1.0" encoding="utf-8"?>
<!-- Generator: Adobe Illustrator 22.1.0, SVG Export Plug-In . SVG Version: 6.00 Build 0)  -->
<svg version="1.1" id="edetaria-logo" xmlns="http://www.w3.org/2000/svg" xmlns:xlink="http://www.w3.org/1999/xlink" x="0px"
	 y="0px" viewBox="0 0 500 350" enable-background="new 0 0 500 350" xml:space="preserve">
<g id="logo">
	<path id="circle" fill="#B0976D" d="M138,118.9C138,57.5,187.8,7.7,249.2,7.7c61.4,0,111.1,49.7,111.1,111.1
		c0,61.4-49.8,111.1-111.1,111.1C187.8,230,138,180.3,138,118.9z"/>
	<path id="t" fill="#ffffff" d="M214.8,84.8v-4.7c13.1-7.6,26.2-18.1,31.7-33h3.9v30.7h29.9v7.1h-29.9v74.7
		c0,11.8,2.4,24.1,16.3,24.1c9.2,0,13.9-5.2,18.9-11.8l4.7,3.4c-4.7,12.6-17.8,16.8-30.4,16.8c-18.9,0-31.7-7.3-31.7-27V84.8H214.8z
		"/>
</g>
<g id="edetaria_1_">
	<g>
		<path fill="#211915" d="M13,316.1c0-1.8,0-5.9-0.6-7.4c-0.7-1.9-3-1.9-4.8-1.9v-1.5h27.7v8.4h-1.3c-1.1-6.5-4-6.9-9.9-6.9h-4
			c-0.8,0-1.2-0.1-1.4,0.2c-0.1,0.2-0.1,0.8-0.1,2.1v13.2c7.6,0.3,8.8-2.8,9.1-6.9h1.3c-0.1,2.5-0.1,5.1-0.2,7.6
			c0.1,2.3,0.2,4.6,0.2,6.9h-1.3c-0.8-5.9-3.7-6.1-9.1-6.1v9.1c0,1.7,0,4.3,1,5.6c1.4,2,4.9,2.1,7.1,2c5.8-0.1,9.6-0.8,10.3-7.5h1.3
			l-0.5,9H7.7v-1.3c1.8,0,4.1,0,4.8-1.9c0.6-1.5,0.6-5.6,0.6-7.4V316.1z"/>
		<path fill="#211915" d="M78.3,316c0-1.8,0-5.9-0.5-7.4c-0.6-2-3-1.9-4.7-1.9v-1.4c2.3,0.1,4.7,0.2,7,0.2c3-0.1,6-0.2,9-0.2
			c11.8-0.2,20.7,7.1,20.7,19.2c0,11.8-7.7,18-19.2,17.7c-3.3-0.1-6.6-0.2-9.9-0.2c-2.6,0.1-5.1,0.2-7.6,0.2v-1.3
			c1.8,0,4.1,0,4.7-1.9c0.5-1.5,0.5-5.6,0.5-7.4V316z M84,332.4c0,1.9-0.2,4.6,0.9,6.2c1.3,1.9,4.1,2.1,6.2,2.1
			c9.8,0,11.7-7,11.7-15.3c0-11-3.2-18.6-15.1-18.6c-0.7,0-2.8-0.1-3.3,0.4c-0.3,0.3-0.3,1.3-0.3,1.7V332.4z"/>
		<path fill="#211915" d="M150.2,316.1c0-1.8,0-5.9-0.6-7.4c-0.7-1.9-3-1.9-4.8-1.9v-1.5h27.7v8.4h-1.3c-1.1-6.5-4-6.9-9.9-6.9h-4
			c-0.8,0-1.2-0.1-1.4,0.2c-0.1,0.2-0.1,0.8-0.1,2.1v13.2c7.6,0.3,8.8-2.8,9.1-6.9h1.3c-0.1,2.5-0.1,5.1-0.2,7.6
			c0.1,2.3,0.2,4.6,0.2,6.9H165c-0.8-5.9-3.7-6.1-9.1-6.1v9.1c0,1.7,0,4.3,1,5.6c1.5,2,4.9,2.1,7.1,2c5.8-0.1,9.6-0.8,10.3-7.5h1.3
			l-0.5,9h-30.3v-1.3c1.8,0,4.1,0,4.8-1.9c0.6-1.5,0.6-5.6,0.6-7.4V316.1z"/>
		<path fill="#211915" d="M211.6,314.9v-1.2c3.4-1.9,6.7-4.6,8.1-8.4h1v7.8h7.6v1.8h-7.6V334c0,3,0.6,6.2,4.2,6.2
			c2.3,0,3.6-1.3,4.8-3l1.2,0.9c-1.2,3.2-4.6,4.3-7.8,4.3c-4.8,0-8.1-1.9-8.1-6.9v-20.5H211.6z"/>
		<path fill="#211915" d="M275.7,330.1c-0.8,2.1-2.7,6.2-2.7,8.4c0,2.4,2.8,2.2,4.5,2.4v1.3c-2.1-0.1-4.1-0.2-6.1-0.2
			c-2,0.1-3.8,0.2-5.8,0.2v-1.3c3-0.3,4.2-1.2,5.4-4c1.6-3.6,3.1-7.1,4.6-10.6l8.5-21.9h1.9l11.3,28.3c0.7,1.4,1.9,4.9,2.9,6.1
			c1.2,1.6,2.9,1.8,4.8,2.1v1.3c-2.6-0.1-5.3-0.2-7.9-0.2c-2.7,0.1-5.4,0.2-8.1,0.2v-1.3c1.6-0.1,4.3,0.1,4.3-2.1
			c0-1.4-0.6-3.1-1.1-4.3l-2.2-5.7h-13.8L275.7,330.1z M289.3,327l-6.1-15.7L277,327H289.3z M290,299.8l-7.5-3.2
			c-1.3-0.6-3.5-1.2-3.5-3c0-1.1,0.8-2,1.9-2c0.9,0,1.8,0.7,2.5,1.3l8.8,6.9H290z"/>
		<path fill="#211915" d="M367.1,337.7c1.8,2.1,2.6,2.8,5.5,3.3v1.3c-1.7-0.1-3.3-0.2-5-0.2c-1.4,0.1-2.8,0.2-4.2,0.2l-2.6-3.2
			l-9.3-11.5c-1.8-2.1-1.6-2.5-4.6-2.5v6.6c0,1.8,0,5.9,0.5,7.4c0.7,2,3,1.9,4.7,1.9v1.3c-2.6-0.1-5.2-0.2-7.9-0.2
			c-2.8,0.1-5.6,0.2-8.4,0.2v-1.3c1.8,0,4.1,0,4.7-1.9c0.5-1.5,0.5-5.6,0.5-7.4v-15.7c0-1.8,0-5.9-0.5-7.4c-0.6-2-3-1.9-4.7-1.9
			v-1.3c3.2,0.1,6.4,0.2,9.6,0.2c2.3-0.1,4.7-0.2,7.1-0.2c6.4,0,12.8,1.4,12.8,9.2c0,6-4.6,9.1-10.1,9.6L367.1,337.7z M346.9,323.6
			c7,0,12-0.2,12-8.3c0-4.9-2.8-8.4-7.8-8.4c-0.7,0-3.1-0.2-3.6,0.1c-0.7,0.3-0.6,1.4-0.6,2V323.6z"/>
		<path fill="#211915" d="M409.1,315.9c0-1.8,0-5.9-0.6-7.4c-0.7-1.9-3-1.9-4.8-1.9v-1.3c2.7,0.1,5.3,0.2,8,0.2
			c2.8-0.1,5.6-0.2,8.4-0.2v1.3c-1.8,0-4.1,0-4.8,1.9c-0.6,1.5-0.6,5.6-0.6,7.4v15.7c0,1.8,0,5.9,0.6,7.4c0.7,1.9,3,1.9,4.8,1.9v1.3
			c-2.6-0.1-5.4-0.2-8-0.2c-2.8,0.1-5.6,0.2-8.4,0.2v-1.3c1.8,0,4.1,0,4.8-1.9c0.6-1.5,0.6-5.6,0.6-7.4V315.9z"/>
		<path fill="#211915" d="M461.4,330.1c-0.8,2.1-2.7,6.2-2.7,8.4c0,2.4,2.8,2.2,4.5,2.4v1.3c-2.1-0.1-4.1-0.2-6.1-0.2
			c-2,0.1-3.8,0.2-5.8,0.2v-1.3c3-0.3,4.2-1.2,5.4-4c1.6-3.6,3.1-7.1,4.6-10.6l8.5-21.9h1.9l11.3,28.3c0.7,1.4,1.9,4.9,2.9,6.1
			c1.2,1.6,2.9,1.8,4.8,2.1v1.3c-2.6-0.1-5.3-0.2-7.9-0.2c-2.7,0.1-5.4,0.2-8.1,0.2v-1.3c1.6-0.1,4.3,0.1,4.3-2.1
			c0-1.4-0.6-3.1-1.1-4.3l-2.2-5.7h-13.8L461.4,330.1z M475,327l-6.1-15.7l-6.2,15.7H475z"/>
	</g>
</g>
</svg>
