<?xml version="1.0" encoding="utf-8"?>
<!-- Generator: Adobe Illustrator 18.1.1, SVG Export Plug-In . SVG Version: 6.00 Build 0)  -->
<svg version="1.1" id="Layer_1" xmlns="http://www.w3.org/2000/svg" xmlns:xlink="http://www.w3.org/1999/xlink" x="0px" y="0px"
	 width="512px" height="512px" viewBox="156 -156 512 512" enable-background="new 156 -156 512 512" xml:space="preserve">
<path d="M452-20c0-22-18-40-40-40s-40,18-40,40s18,40,40,40S452,2,452-20z M452,220c0-22-18-40-40-40s-40,18-40,40s18,40,40,40
	S452,242,452,220z M452,100c0-22-18-40-40-40s-40,18-40,40s18,40,40,40S452,122,452,100z"/>
</svg>
