<?xml version="1.0" encoding="utf-8"?>
<!-- Generator: Adobe Illustrator 18.1.1, SVG Export Plug-In . SVG Version: 6.00 Build 0)  -->
<svg version="1.1" id="Layer_1" xmlns="http://www.w3.org/2000/svg" xmlns:xlink="http://www.w3.org/1999/xlink" x="0px" y="0px"
	 width="512px" height="512px" viewBox="156 -156 512 512" enable-background="new 156 -156 512 512" xml:space="preserve">
<g>
	<path d="M412-124c-74,0-134.2,58.7-134.2,132.7c0,16.4,3.5,34.3,9.8,50.4h-0.1l0.6,1.2c0.5,1.1,1,2.2,1.5,3.3L412,324L533.8,64.9
		l0.6-1.2c0.5-1.1,1.1-2.2,1.6-3.4l0.4-1.1c6.5-16.1,9.8-33.1,9.8-50.3C546.2-65.3,486-124,412-124z M412,50.9
		c-25.9,0-46.9-21-46.9-46.9s21-46.9,46.9-46.9s46.9,21,46.9,46.9S437.9,50.9,412,50.9z"/>
</g>
</svg>
