<?xml version="1.0" encoding="utf-8"?>
<!-- Generator: Adobe Illustrator 18.1.1, SVG Export Plug-In . SVG Version: 6.00 Build 0)  -->
<svg version="1.1" id="Layer_1" xmlns="http://www.w3.org/2000/svg" xmlns:xlink="http://www.w3.org/1999/xlink" x="0px" y="0px"
	 width="512px" height="512px" viewBox="156 -156 512 512" enable-background="new 156 -156 512 512" xml:space="preserve">
<g>
	<circle cx="412" cy="99.8" r="80"/>
</g>
<g>
	<path d="M333.8,20.9C355-0.3,383.1-12,413-12s58,11.8,79.2,33c13.4,13.4,23,29.6,28.2,47.6h84.1v-113c0-26.5-20.5-47-47-47h-288
		c-26.5,0-49,20.5-49,47v113h85.1C310.8,50.5,320.4,34.3,333.8,20.9z M572.5-8.3c0,7.1-5.7,12.8-12.8,12.8h-38.4
		c-7.1,0-12.8-5.7-12.8-12.8v-38.4c0-7.1,5.7-12.8,12.8-12.8h38.4c7.1,0,12.8,5.7,12.8,12.8V-8.3z"/>
	<path d="M492.2,179.3C471,200.4,442.9,212,413,212s-58-11.5-79.2-32.6c-21.1-21.1-32.8-49.8-32.8-78.8h-80.5v143
		c0,26.5,22.5,49,49,49h288c26.5,0,47-22.5,47-49v-143H525C525,129.5,513.3,158.2,492.2,179.3z"/>
</g>
</svg>
